<svg width="67" height="22" viewBox="0 0 67 22" fill="none" xmlns="http://www.w3.org/2000/svg">
<path d="M18.6538 20.2743C18.6538 20.5202 18.6061 20.7485 18.5106 20.9593C18.4238 21.1701 18.3023 21.3545 18.1461 21.5126C17.9986 21.6619 17.8207 21.7804 17.6124 21.8683C17.4041 21.9561 17.1828 22 16.9485 22C16.7402 22 16.5276 21.9605 16.3107 21.8814C16.1024 21.8024 15.9158 21.675 15.7509 21.4994L3.3845 8.43114V21.7365H0V4.30778C0 3.95649 0.0954601 3.64032 0.28638 3.35928C0.485979 3.06946 0.737647 2.85429 1.04138 2.71377C1.36248 2.58204 1.69225 2.5513 2.0307 2.62156C2.36915 2.68303 2.65987 2.84112 2.90286 3.09581L15.2693 16.1509V2.84551H18.6538V20.2743Z" fill="white"/>
<path d="M37.4247 16.9281C37.4247 17.5166 37.351 18.0479 37.2034 18.5222C37.0559 18.9876 36.8606 19.4004 36.6176 19.7605C36.3747 20.1118 36.0926 20.4148 35.7715 20.6695C35.4504 20.9154 35.112 21.1174 34.7562 21.2754C34.409 21.4335 34.0532 21.5521 33.6888 21.6311C33.333 21.7014 32.9945 21.7365 32.6734 21.7365H26.5683C26.0997 21.7365 25.5877 21.6531 25.0323 21.4862C24.4768 21.3194 23.9605 21.0471 23.4832 20.6695C23.0146 20.283 22.6197 19.7868 22.2986 19.1808C21.9862 18.5661 21.83 17.8152 21.83 16.9281V12.291C21.83 11.4128 21.9862 10.6707 22.2986 10.0647C22.6197 9.4499 23.0146 8.95369 23.4832 8.57605C23.9605 8.18962 24.4768 7.91297 25.0323 7.74611C25.5877 7.57924 26.0997 7.49581 26.5683 7.49581H32.6734C33.5412 7.49581 34.2789 7.65389 34.8863 7.97006C35.4938 8.28623 35.9841 8.68583 36.3573 9.16886C36.7305 9.64311 36.9995 10.1613 37.1644 10.7234C37.3379 11.2854 37.4247 11.808 37.4247 12.291V16.9281ZM34.0402 12.3174C34.0402 11.8431 33.9231 11.4918 33.6888 11.2635C33.4544 11.0351 33.116 10.921 32.6734 10.921H26.5943C26.1431 10.921 25.8003 11.0395 25.566 11.2766C25.3317 11.505 25.2145 11.8431 25.2145 12.291V16.9281C25.2145 17.376 25.3317 17.7186 25.566 17.9557C25.8003 18.1928 26.1431 18.3114 26.5943 18.3114H32.6734C33.1334 18.3114 33.4761 18.1928 33.7018 17.9557C33.9274 17.7186 34.0402 17.376 34.0402 16.9281V12.3174Z" fill="white"/>
<path d="M57.1069 7.49581C56.725 8.699 56.2781 9.88463 55.7661 11.0527C55.2541 12.2208 54.664 13.3361 53.9957 14.3988C53.3362 15.4527 52.5942 16.4319 51.7698 17.3365C50.954 18.2323 50.0472 19.0096 49.0492 19.6683C48.0598 20.3182 46.9794 20.8319 45.8079 21.2096C44.645 21.5784 43.3823 21.7629 42.0198 21.7629C41.7855 21.7629 41.5642 21.719 41.3559 21.6311C41.1477 21.5433 40.9654 21.4248 40.8092 21.2754C40.653 21.1174 40.5315 20.9373 40.4447 20.7353C40.3579 20.5246 40.3146 20.3006 40.3146 20.0635V7.49581H43.6991V18.206C44.5235 18.206 45.3132 18.0259 46.0682 17.6659C46.8319 17.3058 47.5522 16.8315 48.2291 16.2431C48.906 15.6459 49.5308 14.9697 50.1036 14.2144C50.685 13.4591 51.2014 12.6862 51.6526 11.8958C52.1039 11.0966 52.4857 10.315 52.7981 9.5509C53.1192 8.78683 53.3579 8.1018 53.5141 7.49581H57.1069Z" fill="white"/>
<path d="M61.7671 21.7365H58.3826V7.49581H61.7671V21.7365ZM67 3.2012L60.205 5.66467L59.3068 3.68862L65.5681 0L67 3.2012Z" fill="white"/>
</svg>
