<svg width="27" height="28" viewBox="0 0 27 28" fill="none" xmlns="http://www.w3.org/2000/svg">
<path d="M13.7612 11.6262V16.6825H20.7878C20.4793 18.3086 19.5534 19.6855 18.1647 20.6113L22.402 23.8991C24.8708 21.6203 26.2951 18.2731 26.2951 14.2969C26.2951 13.3712 26.2121 12.4809 26.0577 11.6264L13.7612 11.6262Z" fill="#4285F4"/>
<path d="M6.44444 16.4851L5.48876 17.2167L2.10596 19.8516C4.25429 24.1126 8.65748 27.0563 13.7612 27.0563C17.2863 27.0563 20.2417 25.8931 22.402 23.8991L18.1647 20.6113C17.0015 21.3946 15.5178 21.8695 13.7612 21.8695C10.3666 21.8695 7.48248 19.5787 6.44978 16.4926L6.44444 16.4851Z" fill="#34A853"/>
<path d="M2.10555 8.14844C1.2154 9.90502 0.705078 11.8872 0.705078 13.9999C0.705078 16.1126 1.2154 18.0948 2.10555 19.8514C2.10555 19.8632 6.44979 16.4805 6.44979 16.4805C6.18867 15.6972 6.03432 14.8664 6.03432 13.9998C6.03432 13.1332 6.18867 12.3024 6.44979 11.519L2.10555 8.14844Z" fill="#FBBC05"/>
<path d="M13.7615 6.1426C15.6844 6.1426 17.3935 6.80726 18.7585 8.08916L22.4973 4.35038C20.2302 2.23768 17.2867 0.943848 13.7615 0.943848C8.65774 0.943848 4.25429 3.87556 2.10596 8.14852L6.45006 11.5194C7.48263 8.43335 10.3669 6.1426 13.7615 6.1426Z" fill="#EA4335"/>
</svg>
