<svg width="78" height="78" viewBox="0 0 78 78" fill="none" xmlns="http://www.w3.org/2000/svg">
<g filter="url(#filter0_d_36_3223)">
<rect x="13" y="10" width="52" height="52" rx="6.70968" fill="#3BB39D"/>
</g>
<path d="M39.5 25.2494C42.8295 25.2494 43.228 25.2494 44.544 25.3228C45.3358 25.328 46.1223 25.4748 46.8616 25.7527C47.9469 26.1722 48.8068 27.0321 49.2263 28.1174C49.5042 28.8568 49.651 29.6432 49.6562 30.435C49.7192 31.751 49.7297 32.1495 49.7297 35.479C49.7297 38.8085 49.7297 39.207 49.6562 40.5231C49.651 41.3148 49.5042 42.1013 49.2263 42.8406C48.8068 43.926 47.9469 44.7859 46.8616 45.2053C46.1223 45.4832 45.3358 45.63 44.544 45.6353C43.228 45.6982 42.8347 45.7087 39.5 45.7087C36.1653 45.7087 35.772 45.7087 34.456 45.6353C33.6642 45.63 32.8777 45.4832 32.1384 45.2053C31.0531 44.7859 30.1932 43.926 29.7737 42.8406C29.4958 42.1013 29.349 41.3148 29.3437 40.5231C29.2808 39.207 29.2703 38.8085 29.2703 35.479C29.2703 32.1495 29.2703 31.751 29.3437 30.435C29.349 29.6432 29.4958 28.8568 29.7737 28.1174C30.1932 27.0321 31.0531 26.1722 32.1384 25.7527C32.8777 25.4748 33.6642 25.328 34.456 25.3228C35.772 25.2599 36.1705 25.2494 39.5 25.2494ZM39.5 23C36.1128 23 35.6881 23 34.3563 23.0734C33.3182 23.0944 32.2957 23.2936 31.3257 23.6554C29.6374 24.3003 28.3003 25.6374 27.6554 27.3257C27.2936 28.2957 27.0944 29.3182 27.0734 30.3563C27.0157 31.6881 27 32.1128 27 35.5C27 38.8872 27 39.3119 27.0734 40.6437C27.0944 41.6818 27.2936 42.7043 27.6554 43.6743C28.3003 45.3626 29.6374 46.6997 31.3257 47.3446C32.2957 47.7064 33.3182 47.9056 34.3563 47.9266C35.6881 47.9843 36.1128 48 39.5 48C42.8872 48 43.3119 48 44.6437 47.9266C45.6818 47.9056 46.7043 47.7064 47.6743 47.3446C49.3626 46.6997 50.6997 45.3626 51.3446 43.6743C51.7064 42.7043 51.9056 41.6818 51.9266 40.6437C51.9843 39.3119 52 38.8872 52 35.5C52 32.1128 52 31.6881 51.9266 30.3563C51.9056 29.3182 51.7064 28.2957 51.3446 27.3257C50.6997 25.6374 49.3626 24.3003 47.6743 23.6554C46.7043 23.2936 45.6818 23.0944 44.6437 23.0734C43.3119 23.0157 42.8872 23 39.5 23Z" fill="white"/>
<path d="M39.4997 29.0651C35.9605 29.0651 33.0924 31.9331 33.0924 35.4724C33.0924 39.0116 35.9605 41.8797 39.4997 41.8797C43.039 41.8797 45.907 39.0116 45.907 35.4724C45.907 31.9331 43.039 29.0651 39.4997 29.0651ZM39.4997 39.6303C37.2032 39.6303 35.3418 37.7689 35.3418 35.4724C35.3418 33.1758 37.2032 31.3144 39.4997 31.3144C41.7963 31.3144 43.6577 33.1758 43.6577 35.4724C43.6577 37.7689 41.7963 39.6303 39.4997 39.6303Z" fill="white"/>
<path d="M46.1588 30.3138C46.987 30.3138 47.6584 29.6424 47.6584 28.8142C47.6584 27.986 46.987 27.3146 46.1588 27.3146C45.3306 27.3146 44.6592 27.986 44.6592 28.8142C44.6592 29.6424 45.3306 30.3138 46.1588 30.3138Z" fill="white"/>
<defs>
<filter id="filter0_d_36_3223" x="0.419355" y="0.774194" width="77.1613" height="77.1613" filterUnits="userSpaceOnUse" color-interpolation-filters="sRGB">
<feFlood flood-opacity="0" result="BackgroundImageFix"/>
<feColorMatrix in="SourceAlpha" type="matrix" values="0 0 0 0 0 0 0 0 0 0 0 0 0 0 0 0 0 0 127 0" result="hardAlpha"/>
<feOffset dy="3.35484"/>
<feGaussianBlur stdDeviation="6.29032"/>
<feComposite in2="hardAlpha" operator="out"/>
<feColorMatrix type="matrix" values="0 0 0 0 0 0 0 0 0 0 0 0 0 0 0 0 0 0 0.15 0"/>
<feBlend mode="normal" in2="BackgroundImageFix" result="effect1_dropShadow_36_3223"/>
<feBlend mode="normal" in="SourceGraphic" in2="effect1_dropShadow_36_3223" result="shape"/>
</filter>
</defs>
</svg>
