<svg width="78" height="78" viewBox="0 0 78 78" fill="none" xmlns="http://www.w3.org/2000/svg">
<g filter="url(#filter0_d_36_3240)">
<rect x="13" y="10" width="52" height="52" rx="6.70968" fill="#3BB39D"/>
</g>
<path fill-rule="evenodd" clip-rule="evenodd" d="M44.7373 21C45.2452 25.2656 47.6233 27.8053 51.7388 28.065V32.8328C49.3434 33.0637 47.2481 32.2556 44.8123 30.8126V39.7708C44.8123 51.1649 32.3908 54.7148 27.4095 46.5588C24.2002 41.312 26.1685 32.0824 36.4601 31.7245V36.7867C35.652 36.9194 34.8612 37.1099 34.082 37.3639C31.7732 38.1316 30.5033 39.5919 30.8612 42.1489C31.5596 47.0494 40.5468 48.4982 39.7964 38.9281V21.0173H44.7604L44.7373 21Z" fill="white"/>
<defs>
<filter id="filter0_d_36_3240" x="0.419355" y="0.774194" width="77.1613" height="77.1613" filterUnits="userSpaceOnUse" color-interpolation-filters="sRGB">
<feFlood flood-opacity="0" result="BackgroundImageFix"/>
<feColorMatrix in="SourceAlpha" type="matrix" values="0 0 0 0 0 0 0 0 0 0 0 0 0 0 0 0 0 0 127 0" result="hardAlpha"/>
<feOffset dy="3.35484"/>
<feGaussianBlur stdDeviation="6.29032"/>
<feComposite in2="hardAlpha" operator="out"/>
<feColorMatrix type="matrix" values="0 0 0 0 0 0 0 0 0 0 0 0 0 0 0 0 0 0 0.15 0"/>
<feBlend mode="normal" in2="BackgroundImageFix" result="effect1_dropShadow_36_3240"/>
<feBlend mode="normal" in="SourceGraphic" in2="effect1_dropShadow_36_3240" result="shape"/>
</filter>
</defs>
</svg>
